<svg width="170" height="170" viewBox="0 0 170 170" fill="none" xmlns="http://www.w3.org/2000/svg">
<path d="M4.81738 4.40588H36.2257V120.787H165.183" stroke="#005BBB" stroke-width="4" stroke-linecap="round" stroke-linejoin="round"/>
<path d="M59.9745 170C71.5875 170 81.0017 161.39 81.0017 150.768C81.0017 140.147 71.5875 131.537 59.9745 131.537C48.3615 131.537 38.9473 140.147 38.9473 150.768C38.9473 161.39 48.3615 170 59.9745 170Z" fill="#005BBB"/>
<path d="M148.081 170C159.694 170 169.109 161.39 169.109 150.768C169.109 140.147 159.694 131.537 148.081 131.537C136.468 131.537 127.054 140.147 127.054 150.768C127.054 161.39 136.468 170 148.081 170Z" fill="#005BBB"/>
<path d="M96.8746 51.7468H55.061V120.809H96.8746V51.7468Z" stroke="#005BBB" stroke-width="4" stroke-linecap="round" stroke-linejoin="round"/>
<path d="M148.082 82.5437H96.8745V120.787H148.082V82.5437Z" stroke="#005BBB" stroke-width="4" stroke-linecap="round" stroke-linejoin="round"/>
</svg>
