<svg width="170" height="170" viewBox="0 0 170 170" fill="none" xmlns="http://www.w3.org/2000/svg">
<path d="M85.0001 164.593C128.958 164.593 164.593 128.958 164.593 85C164.593 41.0421 128.958 5.4071 85.0001 5.4071C41.0422 5.4071 5.40723 41.0421 5.40723 85C5.40723 128.958 41.0422 164.593 85.0001 164.593Z" stroke="#005BBB" stroke-width="4" stroke-linecap="round" stroke-linejoin="round"/>
<path d="M106.656 46.2579C98.0854 38.6339 83.8647 37.201 74.5644 43.9599C65.2642 50.7188 63.0742 65.4532 70.9686 73.6991C79.9985 83.2156 107.44 80.6202 110.603 104.466C111.008 107.699 110.723 110.983 109.766 114.098C108.808 117.213 107.201 120.09 105.049 122.538C102.897 124.986 100.251 126.95 97.2842 128.299C94.3174 129.648 91.098 130.353 87.8388 130.366C71.9689 130.528 61.6144 122.688 59.1812 110.008" stroke="#005BBB" stroke-width="4" stroke-linecap="round" stroke-linejoin="round"/>
<path d="M88.4604 24.1698V141.883" stroke="#005BBB" stroke-width="4" stroke-linecap="round" stroke-linejoin="round"/>
</svg>
