<svg width="191" height="170" viewBox="0 0 191 170" fill="none" xmlns="http://www.w3.org/2000/svg">
<path d="M148.087 74.5162L143.969 62.6253L134.452 65.935C131.364 60.0473 126.902 55.0012 121.449 51.2299L125.842 42.1135L114.533 36.5843L110.139 45.7006C103.813 43.7328 97.1074 43.3317 90.5938 44.5314L87.3034 34.979L75.4816 39.121L78.7917 48.6733C72.9324 51.7788 67.9092 56.2671 64.1524 61.7533L55.1088 57.3339L49.6117 68.7293L58.6554 73.1488C56.6984 79.5052 56.2995 86.2435 57.4929 92.7885L47.9961 96.0982L52.114 107.989L61.6108 104.679C64.7105 110.559 69.1706 115.603 74.6147 119.384L70.221 128.501L81.5501 134.03L85.9439 124.914C92.2634 126.881 98.9625 127.283 105.47 126.083L108.78 135.635L120.601 131.493L117.311 121.941C123.156 118.823 128.171 114.337 131.931 108.861L140.994 113.28L146.491 101.885L137.428 97.4656C139.385 91.1092 139.783 84.3709 138.59 77.8258L148.087 74.5162Z" stroke="#005BBB" stroke-width="4" stroke-linecap="round" stroke-linejoin="round"/>
<path d="M98.0021 109.911C111.539 109.911 122.513 98.8735 122.513 85.2576C122.513 71.6417 111.539 60.6039 98.0021 60.6039C84.4654 60.6039 73.4917 71.6417 73.4917 85.2576C73.4917 98.8735 84.4654 109.911 98.0021 109.911Z" stroke="#005BBB" stroke-width="4" stroke-linecap="round" stroke-linejoin="round"/>
<path d="M98.0025 93.6605C102.616 93.6605 106.356 89.8984 106.356 85.2576C106.356 80.6168 102.616 76.8547 98.0025 76.8547C93.3887 76.8547 89.6484 80.6168 89.6484 85.2576C89.6484 89.8984 93.3887 93.6605 98.0025 93.6605Z" fill="#005BBB"/>
<path d="M66.9507 160.032C78.5225 164.767 91.0304 166.733 103.487 165.773C115.943 164.813 128.007 160.953 138.727 154.5C149.446 148.046 158.527 139.174 165.254 128.585C171.98 117.995 176.167 105.978 177.484 93.4822L187.04 117.958" stroke="#005BBB" stroke-width="4" stroke-linecap="round" stroke-linejoin="round"/>
<path d="M3.94043 85.2577L19.289 105.076C15.4839 90.0793 16.0268 74.3006 20.8537 59.6046C25.6805 44.9087 34.5895 31.9099 46.5275 22.1449C58.4654 12.3798 72.9333 6.25673 88.221 4.49936C103.509 2.74199 118.977 5.4238 132.798 12.2278" stroke="#005BBB" stroke-width="4" stroke-linecap="round" stroke-linejoin="round"/>
<path d="M30.106 85.2577L19.2891 105.056" stroke="#005BBB" stroke-width="4" stroke-linecap="round" stroke-linejoin="round"/>
<path d="M156.835 108.663L176.006 94.7704" stroke="#005BBB" stroke-width="4" stroke-linecap="round" stroke-linejoin="round"/>
</svg>
