<svg id="Layer_1" data-name="Layer 1" xmlns="http://www.w3.org/2000/svg" viewBox="0 0 400 400"><defs><style>.cls-1{fill:#005bbb;}.cls-2{fill:#fff;}</style></defs><circle class="cls-1" cx="198.8" cy="202.47" r="195"/><path class="cls-2" d="M277.06,242.33H146.66a3.25,3.25,0,0,1-3.09-2.24l-27.75-84.21a3.29,3.29,0,0,1,.46-2.93,3.24,3.24,0,0,1,2.64-1.35H300.65a3.26,3.26,0,0,1,3.13,4.14L280.2,240A3.26,3.26,0,0,1,277.06,242.33Zm-128-6.52H274.59l21.76-77.69H123.42Z"/><path class="cls-2" d="M146.66,242.33a3.25,3.25,0,0,1-3.09-2.24L102.21,114.16H66.77a3.26,3.26,0,1,1,0-6.51h37.8a3.24,3.24,0,0,1,3.09,2.24l42.1,128.17a3.25,3.25,0,0,1-3.1,4.27Z"/><path class="cls-2" d="M277.06,277.88h-144a21,21,0,0,1,0-42.07h144a3.26,3.26,0,0,1,0,6.52h-144a14.52,14.52,0,1,0,0,29h144a3.26,3.26,0,1,1,0,6.52Z"/><path class="cls-2" d="M153.65,310.05a18.23,18.23,0,1,1,18.23-18.22A18.24,18.24,0,0,1,153.65,310.05Zm0-29.94a11.72,11.72,0,1,0,11.72,11.72A11.73,11.73,0,0,0,153.65,280.11Z"/><path class="cls-2" d="M262.09,310.05a18.23,18.23,0,1,1,18.23-18.22A18.24,18.24,0,0,1,262.09,310.05Zm0-29.94a11.72,11.72,0,1,0,11.72,11.72A11.73,11.73,0,0,0,262.09,280.11Z"/><path class="cls-2" d="M191,242.33a3.26,3.26,0,0,1-3.23-2.84l-10.81-84.21a3.26,3.26,0,1,1,6.46-.83l10.81,84.21a3.25,3.25,0,0,1-2.82,3.64Z"/><path class="cls-2" d="M236.32,242.33l-.42,0a3.25,3.25,0,0,1-2.82-3.64l10.81-84.21a3.26,3.26,0,1,1,6.46.83l-10.81,84.21A3.25,3.25,0,0,1,236.32,242.33Z"/><path class="cls-2" d="M288.85,200.22H132.79a3.26,3.26,0,1,1,0-6.51H288.85a3.26,3.26,0,1,1,0,6.51Z"/></svg>