<svg id="Layer_1" data-name="Layer 1" xmlns="http://www.w3.org/2000/svg" viewBox="0 0 400 400"><defs><style>.cls-1{fill:#005bbb;}.cls-2{fill:#fff;}</style></defs><circle class="cls-1" cx="200" cy="200" r="195"/><path class="cls-2" d="M200,158.54a56.39,56.39,0,1,1,56.38-56.39A56.46,56.46,0,0,1,200,158.54Zm0-106.26a49.87,49.87,0,1,0,49.87,49.87A49.92,49.92,0,0,0,200,52.28Z"/><path class="cls-2" d="M288.49,307.14h-177A26.37,26.37,0,0,1,90.85,297a29.7,29.7,0,0,1-5.61-25.31C98.57,213.8,145.76,173.39,200,173.39s101.43,40.41,114.76,98.28A29.7,29.7,0,0,1,309.15,297,26.37,26.37,0,0,1,288.49,307.14ZM200,179.9c-51.19,0-95.77,38.34-108.41,93.23a23.2,23.2,0,0,0,4.35,19.79,19.9,19.9,0,0,0,15.57,7.71h177a19.91,19.91,0,0,0,15.57-7.71,23.2,23.2,0,0,0,4.35-19.79C295.77,218.24,251.19,179.9,200,179.9Z"/><circle class="cls-1" cx="291.2" cy="276.45" r="47.95"/><path class="cls-2" d="M291.2,327.66a51.21,51.21,0,1,1,51.21-51.21A51.27,51.27,0,0,1,291.2,327.66Zm0-95.9a44.7,44.7,0,1,0,44.7,44.69A44.74,44.74,0,0,0,291.2,231.76Z"/><path class="cls-2" d="M292.64,307.05c-10.71,0-18.43-5.69-20.19-14.91a3.26,3.26,0,0,1,6.41-1.22c1.17,6.19,6.35,9.73,14,9.62a10.65,10.65,0,0,0,10.53-11.93c-.92-6.87-5.81-9.05-13.15-11.58-3.83-1.32-7.45-2.57-9.88-5.13a14.46,14.46,0,0,1-3.73-11.36A16.13,16.13,0,0,1,283,249.08c6.68-4.84,17-4.14,23.42,1.59a3.26,3.26,0,0,1-4.33,4.87c-4.19-3.72-11-4.25-15.26-1.18a9.45,9.45,0,0,0-3.69,6.77,8,8,0,0,0,2,6.28c1.34,1.41,4.23,2.41,7.29,3.46,6.73,2.32,15.95,5.5,17.47,16.88a17.16,17.16,0,0,1-16.92,19.3Z"/><path class="cls-2" d="M293.28,314a3.26,3.26,0,0,1-3.26-3.26v-70.9a3.26,3.26,0,0,1,6.52,0v70.9A3.26,3.26,0,0,1,293.28,314Z"/></svg>