<svg id="Layer_1" data-name="Layer 1" xmlns="http://www.w3.org/2000/svg" viewBox="0 0 400 400"><defs><style>.cls-1{fill:#005bbb;}.cls-2{fill:#fff;}</style></defs><circle class="cls-1" cx="200" cy="200" r="195.1"/><path class="cls-2" d="M159.66,328.15H140.43a3.26,3.26,0,0,1-3.26-3.26V312.26a66.49,66.49,0,0,1-24-9.95l-9,8.94a3.25,3.25,0,0,1-4.6,0L86,297.65a3.26,3.26,0,0,1,0-4.6L95,284.1a66.49,66.49,0,0,1-10-24H72.39a3.26,3.26,0,0,1-3.26-3.26V237.62a3.25,3.25,0,0,1,3.26-3.25H85a66.28,66.28,0,0,1,10-24L86,201.43a3.27,3.27,0,0,1,0-4.61l13.6-13.59a3.24,3.24,0,0,1,4.6,0l8.94,8.94a66.3,66.3,0,0,1,24-10V169.58a3.26,3.26,0,0,1,3.26-3.26h19.23a3.26,3.26,0,0,1,3.26,3.26v12.63a66.33,66.33,0,0,1,24,10l8.94-8.94a3.34,3.34,0,0,1,4.61,0l13.59,13.59a3.25,3.25,0,0,1,0,4.61l-8.94,8.95a66.34,66.34,0,0,1,9.95,24H227.7a3.25,3.25,0,0,1,3.26,3.25v19.23a3.26,3.26,0,0,1-3.26,3.26H215.06a66.49,66.49,0,0,1-9.95,24l8.94,8.95a3.24,3.24,0,0,1,0,4.6l-13.59,13.6a3.36,3.36,0,0,1-4.61,0l-8.95-8.95a66.26,66.26,0,0,1-24,9.95v12.64A3.26,3.26,0,0,1,159.66,328.15Zm-16-6.52H156.4V309.52a3.25,3.25,0,0,1,2.76-3.22,59.76,59.76,0,0,0,26.18-10.86,3.24,3.24,0,0,1,4.23.32l8.58,8.58,9-9-8.58-8.58a3.27,3.27,0,0,1-.32-4.23,59.76,59.76,0,0,0,10.86-26.18,3.26,3.26,0,0,1,3.22-2.77h12.12V240.88H212.32a3.26,3.26,0,0,1-3.22-2.76,59.68,59.68,0,0,0-10.86-26.19,3.26,3.26,0,0,1,.33-4.23l8.57-8.57-9-9-8.57,8.57a3.26,3.26,0,0,1-4.23.33,59.7,59.7,0,0,0-26.19-10.87A3.25,3.25,0,0,1,156.4,185V172.84H143.69V185a3.26,3.26,0,0,1-2.77,3.22A59.8,59.8,0,0,0,114.73,199a3.24,3.24,0,0,1-4.23-.32l-8.57-8.57-9,9,8.57,8.57a3.25,3.25,0,0,1,.33,4.23A59.7,59.7,0,0,0,91,238.12a3.25,3.25,0,0,1-3.22,2.76H75.65v12.71h12.1A3.26,3.26,0,0,1,91,256.36a59.78,59.78,0,0,0,10.87,26.18,3.28,3.28,0,0,1-.32,4.24l-8.58,8.57,9,9,8.58-8.58a3.27,3.27,0,0,1,4.23-.32,59.76,59.76,0,0,0,26.18,10.86,3.26,3.26,0,0,1,2.77,3.22Z"/><path class="cls-2" d="M150,288a40.72,40.72,0,1,1,40.72-40.71A40.75,40.75,0,0,1,150,288ZM150,213a34.2,34.2,0,1,0,34.2,34.2A34.23,34.23,0,0,0,150,213Z"/><path class="cls-2" d="M275,212.09a3.27,3.27,0,0,1-3.08-2.2l-3.5-10.11a58.44,58.44,0,0,1-22.15-1.32l-4.68,9.64a3.26,3.26,0,0,1-4.36,1.51l-15.11-7.34a3.21,3.21,0,0,1-1.66-1.86,3.26,3.26,0,0,1,.15-2.49l4.68-9.64a58.28,58.28,0,0,1-14.75-16.58l-10.11,3.5a3.27,3.27,0,0,1-4.15-2l-5.5-15.88a3.25,3.25,0,0,1,2-4.14l10.1-3.51a58.47,58.47,0,0,1,1.32-22.15l-9.63-4.68a3.24,3.24,0,0,1-1.51-4.35l7.34-15.12a3.26,3.26,0,0,1,4.35-1.51l9.64,4.68A58.43,58.43,0,0,1,231,91.78l-3.5-10.1a3.26,3.26,0,0,1,.15-2.49,3.21,3.21,0,0,1,1.86-1.66L245.41,72a3.26,3.26,0,0,1,4.14,2l3.51,10.11a58.47,58.47,0,0,1,22.15,1.32l4.68-9.63a3.25,3.25,0,0,1,4.35-1.51l15.12,7.33A3.27,3.27,0,0,1,301,83.53a3.22,3.22,0,0,1-.15,2.49l-4.67,9.64a58.55,58.55,0,0,1,14.74,16.58L321,108.73a3.27,3.27,0,0,1,4.15,2l5.5,15.87a3.26,3.26,0,0,1-2,4.15l-10.12,3.5a58.46,58.46,0,0,1-1.32,22.15l9.64,4.68a3.26,3.26,0,0,1,1.51,4.36l-7.33,15.11a3.26,3.26,0,0,1-4.36,1.51l-9.64-4.68a58.24,58.24,0,0,1-16.58,14.74l3.5,10.12a3.25,3.25,0,0,1-2,4.15l-15.87,5.5A3.38,3.38,0,0,1,275,212.09Zm-4.4-19.21a3.26,3.26,0,0,1,3.08,2.19l3.33,9.61,9.72-3.37-3.33-9.61a3.25,3.25,0,0,1,1.56-3.95,51.74,51.74,0,0,0,18.35-16.32,3.27,3.27,0,0,1,4.11-1.09l9.17,4.45,4.49-9.25-9.17-4.45a3.24,3.24,0,0,1-1.69-3.89,51.74,51.74,0,0,0,1.46-24.52,3.26,3.26,0,0,1,2.14-3.67l9.62-3.33L320.1,116l-9.61,3.33a3.25,3.25,0,0,1-3.95-1.56,51.89,51.89,0,0,0-16.33-18.36,3.26,3.26,0,0,1-1.08-4.1l4.45-9.17-9.25-4.49-4.45,9.16a3.27,3.27,0,0,1-3.89,1.7A51.65,51.65,0,0,0,251.46,91a3.28,3.28,0,0,1-3.67-2.14l-3.33-9.61-9.71,3.37,3.32,9.61a3.24,3.24,0,0,1-1.56,3.94,51.8,51.8,0,0,0-18.36,16.33,3.25,3.25,0,0,1-4.11,1.08l-9.15-4.44-4.49,9.25,9.15,4.45a3.24,3.24,0,0,1,1.69,3.89,51.91,51.91,0,0,0-1.46,24.53,3.27,3.27,0,0,1-2.14,3.67l-9.6,3.33,3.37,9.72,9.6-3.33a3.26,3.26,0,0,1,4,1.55,51.83,51.83,0,0,0,16.33,18.37,3.25,3.25,0,0,1,1.08,4.1l-4.44,9.16,9.25,4.49,4.44-9.16a3.26,3.26,0,0,1,3.9-1.69A51.74,51.74,0,0,0,270,192.93,3,3,0,0,1,270.63,192.88Z"/><path class="cls-2" d="M260.72,178a36.09,36.09,0,1,1,11.81-2A35.87,35.87,0,0,1,260.72,178Zm.06-65.48a29.48,29.48,0,1,0,27.81,19.83h0a29.5,29.5,0,0,0-27.81-19.83Z"/><circle class="cls-2" cx="150.04" cy="247.24" r="11.16"/><circle class="cls-2" cx="260.75" cy="141.97" r="11.16"/></svg>