<svg id="Layer_1" data-name="Layer 1" xmlns="http://www.w3.org/2000/svg" viewBox="0 0 400 400"><defs><style>.cls-1{fill:#005bbb;}.cls-2{fill:#fff;}</style></defs><circle class="cls-1" cx="200" cy="202.47" r="195"/><path class="cls-2" d="M122,292.51a3.24,3.24,0,0,1-3.25-3.25V72.71A3.25,3.25,0,0,1,122,69.45h93.56a3.26,3.26,0,0,1,3.26,3.26v41.14h54.13a3.25,3.25,0,0,1,3.26,3.25V270.54a3.26,3.26,0,1,1-6.52,0V120.36H215.52a3.26,3.26,0,0,1-3.25-3.26V76H125.22v213.3A3.25,3.25,0,0,1,122,292.51Z"/><path class="cls-2" d="M272.91,295.29a3.23,3.23,0,0,1-2.3-1L259,282.74,247.9,293.85a3.27,3.27,0,0,1-4.61,0L233.48,284l-10.11,10.11a3.35,3.35,0,0,1-4.6,0l-10.32-10.31L198.35,294a3.27,3.27,0,0,1-4.61,0l-10-10-9.56,9.56a3.36,3.36,0,0,1-4.61,0L158.7,282.64l-10.21,10.21a3.25,3.25,0,0,1-4.6,0l-9.71-9.71-9.91,9.91a3.26,3.26,0,0,1-4.61-4.61l12.21-12.21a3.36,3.36,0,0,1,4.61,0l9.71,9.71,10.21-10.21a3.25,3.25,0,0,1,4.61,0l10.91,10.91,9.56-9.56a3.25,3.25,0,0,1,4.6,0l10,10,10.11-10.11a3.35,3.35,0,0,1,4.61,0l10.31,10.31,10.11-10.11a3.25,3.25,0,0,1,4.6,0l9.81,9.81,11.12-11.11a3.24,3.24,0,0,1,4.6,0l13.9,13.9a3.26,3.26,0,0,1-2.3,5.56Z"/><line class="cls-2" x1="215.52" y1="72.71" x2="272.91" y2="117.1"/><path class="cls-2" d="M272.91,120.36a3.22,3.22,0,0,1-2-.68l-57.39-44.4a3.26,3.26,0,1,1,4-5.15l57.38,44.4a3.25,3.25,0,0,1-2,5.83Z"/><path class="cls-2" d="M240.89,150.3H144.83a3.26,3.26,0,0,1,0-6.51h96.06a3.26,3.26,0,1,1,0,6.51Z"/><path class="cls-2" d="M240.89,180.24H144.83a3.26,3.26,0,0,1,0-6.52h96.06a3.26,3.26,0,1,1,0,6.52Z"/><path class="cls-2" d="M240.89,210.18H144.83a3.26,3.26,0,0,1,0-6.51h96.06a3.26,3.26,0,1,1,0,6.51Z"/><path class="cls-2" d="M215.52,240.12H144.83a3.26,3.26,0,0,1,0-6.52h70.69a3.26,3.26,0,0,1,0,6.52Z"/><circle class="cls-1" cx="269.38" cy="279.74" r="47.95"/><path class="cls-2" d="M269.38,331a51.21,51.21,0,1,1,51.21-51.21A51.26,51.26,0,0,1,269.38,331Zm0-95.9a44.7,44.7,0,1,0,44.69,44.69A44.75,44.75,0,0,0,269.38,235.05Z"/><path class="cls-2" d="M270.82,310.34c-10.71,0-18.43-5.69-20.19-14.91a3.26,3.26,0,0,1,6.4-1.22c1.17,6.12,6.18,9.62,13.78,9.62h.25a10.65,10.65,0,0,0,10.52-11.93c-.92-6.87-5.8-9-13.14-11.58-3.83-1.32-7.45-2.57-9.88-5.13a14.51,14.51,0,0,1-3.74-11.36,16.14,16.14,0,0,1,6.36-11.46c6.67-4.84,17-4.15,23.41,1.59a3.25,3.25,0,1,1-4.32,4.87c-4.19-3.72-11-4.25-15.27-1.18a9.45,9.45,0,0,0-3.69,6.77,8,8,0,0,0,2,6.28c1.34,1.41,4.23,2.4,7.28,3.46,6.73,2.32,16,5.5,17.48,16.88a17.16,17.16,0,0,1-16.92,19.3Z"/><path class="cls-2" d="M271.45,317.26A3.26,3.26,0,0,1,268.2,314V243.1a3.26,3.26,0,1,1,6.51,0V314A3.26,3.26,0,0,1,271.45,317.26Z"/></svg>